<svg id="Capa_1" enable-background="new 0 0 512 512" height="512" viewBox="0 0 512 512" width="512" xmlns="http://www.w3.org/2000/svg"><g><path d="m462 117.476h-412c-27.57 0-50 22.43-50 50v177.047c0 27.57 22.43 50 50 50h412c27.57 0 50-22.43 50-50v-177.047c0-27.57-22.43-50-50-50zm20 227.048c0 11.028-8.972 20-20 20h-412c-11.028 0-20-8.972-20-20v-177.048c0-11.028 8.972-20 20-20h412c11.028 0 20 8.972 20 20z"/><path d="m87.995 222.083h30.002v30h-30.002z"/><path d="m117.998 252.084h30v30.002h-30z"/><path d="m57.994 252.084h30v30.002h-30z"/><path d="m176.42 326.074h159.943v-140.148h-159.943zm30-110.148h99.943v80.149h-99.943z"/><path d="m409.214 210.585c-26.082 0-47.302 21.22-47.302 47.302s21.22 47.302 47.302 47.302 47.302-21.22 47.302-47.302-21.22-47.302-47.302-47.302zm0 64.603c-9.54 0-17.302-7.762-17.302-17.302s7.762-17.302 17.302-17.302 17.302 7.762 17.302 17.302-7.762 17.302-17.302 17.302z"/></g></svg>