<svg id="Capa_1" enable-background="new 0 0 512 512" height="512" viewBox="0 0 512 512" width="512" xmlns="http://www.w3.org/2000/svg"><g><g><path d="m347.155 121h-167.723v200h278.834z" fill="#e7faff"/></g><g><path d="m347.155 121-38.57-69.426c-7.055-12.698-20.44-20.574-34.966-20.574h-124.187c-16.569 0-30 13.431-30 30v60z" fill="#e7faff"/></g><g><path d="m209.432 31h-60c-16.569 0-30 13.431-30 30v60h60v-60c0-16.569 13.431-30 30-30z" fill="#c1f1ff"/></g><g><path d="m434.892 278.926-28.99-52.181h-146.47v-45.745c-11.046 0-20-8.954-20-20s8.954-20 20-20v-20h-80v200h242.643z" fill="#c1f1ff"/></g><g><path d="m368.063 241-27.618-49.713c-3.527-6.349-10.22-10.287-17.483-10.287h-83.53c-11.046 0-20 8.954-20 20v20c0 11.046 8.954 20 20 20z" fill="#5ad6ff"/></g><g><path d="m239.432 181c-11.046 0-20 8.954-20 20v20c0 11.046 8.954 20 20 20h20v-60z" fill="#00bdfd"/></g><g><path d="m47.5 321h208.5l80-80h148.5v20c0 121.503-98.497 220-220 220h-157c-33.137 0-60-26.863-60-60z" fill="#90aecf"/></g><g><path d="m111.288 461c0-11.046 8.954-20 20-20v-60c-11.046 0-20-8.954-20-20s8.954-20 20-20v-20h-83.788v100c0 33.137 26.863 60 60 60h23.788c-11.046 0-20-8.954-20-20z" fill="#7c96b3"/></g><g><g><path d="m239.431 341h-211.931c-11.046 0-20-8.954-20-20 0-11.046 8.954-20 20-20h211.932c5.304 0 10.391-2.107 14.142-5.858l56.569-56.569c11.251-11.252 26.513-17.573 42.426-17.573h131.931c11.046 0 20 8.954 20 20 0 11.046-8.954 20-20 20h-131.932c-5.304 0-10.391 2.107-14.142 5.858l-56.569 56.569c-11.251 11.252-26.513 17.573-42.426 17.573z" fill="#d9c9f4"/></g></g><g><path d="m259.432 441h-211.932c-16.569 0-30-13.431-30-30 0-16.569 13.431-30 30-30h211.932c16.569 0 30 13.431 30 30 0 16.569-13.432 30-30 30z" fill="#d9c9f4"/></g><g><path d="m81.288 411c0-16.569 13.431-30 30-30h-63.788c-16.569 0-30 13.431-30 30s13.431 30 30 30h63.788c-16.569 0-30-13.431-30-30z" fill="#cabaf7"/></g><g><path d="m367.5 141h-260c-11.046 0-20-8.954-20-20 0-11.046 8.954-20 20-20h260c11.046 0 20 8.954 20 20 0 11.046-8.954 20-20 20z" fill="#d9c9f4"/></g><g><path d="m159.432 321c0-11.046 8.954-20 20-20h-151.932c-11.046 0-20 8.954-20 20s8.954 20 20 20h151.932c-11.046 0-20-8.954-20-20z" fill="#cabaf7"/></g><g><path d="m239.432 121c0-11.046 8.954-20 20-20h-151.932c-11.046 0-20 8.954-20 20s8.954 20 20 20h151.932c-11.046 0-20-8.954-20-20z" fill="#cabaf7"/></g><path d="m512 241c0-15.164-12.336-27.5-27.5-27.5h-77.376l-36.232-65.217c13.567-1.677 24.108-13.269 24.108-27.283 0-15.164-12.337-27.5-27.5-27.5h-27.043l-25.315-45.568c-8.372-15.07-24.284-24.432-41.524-24.432h-124.186c-20.678 0-37.5 16.822-37.5 37.5v32.5h-4.432c-15.163 0-27.5 12.336-27.5 27.5s12.337 27.5 27.5 27.5h64.432v85h-116.932c-15.163 0-27.5 12.336-27.5 27.5v32.5c-15.164 0-27.5 12.336-27.5 27.5s12.336 27.5 27.5 27.5h12.5v25.755c-17.096 3.484-30 18.635-30 36.745 0 20.119 15.927 36.583 35.835 37.458 10.761 24.113 35.019 40.042 61.665 40.042h157c60.5 0 117.45-23.485 160.361-66.129 41.72-41.461 65.41-96.3 67.041-154.891 11.579-3.241 20.098-13.881 20.098-26.48zm-385.068-180c0-12.407 10.094-22.5 22.5-22.5h124.187c11.796 0 22.683 6.405 28.41 16.716l21.268 38.284h-196.365zm156.128 87.5c4.143 0 7.5-3.358 7.5-7.5s-3.357-7.5-7.5-7.5h-175.56c-6.893 0-12.5-5.607-12.5-12.5s5.607-12.5 12.5-12.5h260c6.893 0 12.5 5.607 12.5 12.5s-5.607 12.5-12.5 12.5h-54.44c-4.143 0-7.5 3.358-7.5 7.5s3.357 7.5 7.5 7.5h40.793l36.111 65h-28.599l-14.365-25.855c-4.847-8.725-14.058-14.145-24.038-14.145h-83.53c-15.163 0-27.5 12.336-27.5 27.5v20c0 15.164 12.337 27.5 27.5 27.5h50.178l-41.34 41.339c-2.36 2.361-5.499 3.661-8.838 3.661h-52.5v-145zm21.779 84.771-.229.229h-65.178c-6.893 0-12.5-5.607-12.5-12.5v-20c0-6.893 5.607-12.5 12.5-12.5h83.53c4.536 0 8.723 2.464 10.927 6.43l10.593 19.067c-14.968 1.776-28.821 8.451-39.643 19.274zm-132.907 60.229h-33.144v-45h33.144zm-81.288 0v-45h33.145v45zm-48.144-32.5c0-6.893 5.607-12.5 12.5-12.5h20.644v45h-33.144zm222 212.5h-157c-18.37 0-35.285-9.73-44.722-25h196.654c20.678 0 37.5-16.822 37.5-37.5s-16.822-37.5-37.5-37.5h-65c-4.143 0-7.5 3.358-7.5 7.5s3.357 7.5 7.5 7.5h65c12.406 0 22.5 10.093 22.5 22.5s-10.094 22.5-22.5 22.5h-211.932c-12.406 0-22.5-10.093-22.5-22.5s10.094-22.5 22.5-22.5h116.932c4.143 0 7.5-3.358 7.5-7.5s-3.357-7.5-7.5-7.5h-109.432v-25h184.432c18.03 0 34.98-7.021 47.729-19.771l56.569-56.569c2.36-2.361 5.499-3.661 8.838-3.661h124.294c-3.973 113.588-97.991 205.001-212.362 205.001zm220-220h-131.932c-7.347 0-14.253 2.861-19.445 8.055l-56.569 56.568c-9.915 9.916-23.099 15.377-37.122 15.377h-211.932c-6.893 0-12.5-5.607-12.5-12.5s5.607-12.5 12.5-12.5h211.932c7.347 0 14.253-2.861 19.445-8.055l56.569-56.568c9.915-9.916 23.099-15.377 37.122-15.377h131.932c6.893 0 12.5 5.607 12.5 12.5s-5.607 12.5-12.5 12.5z"/></g></svg>