<svg id="Capa_1" enable-background="new 0 0 512 512" height="512" viewBox="0 0 512 512" width="512" xmlns="http://www.w3.org/2000/svg"><g><g><path d="m388.378 364.196h41.207v103.018h-41.207z" fill="#6a89a5" transform="matrix(-1 0 0 -1 817.964 831.411)"/></g><g><path d="m264.757 364.196h41.207v103.018h-41.207z" fill="#6a89a5"/></g><g><path d="m273.88 52.627h41.207v82.414h-41.207z" fill="#6a89a5"/></g><g><path d="m331.142 106.624h-73.318c-8.868 0-16.742 5.675-19.546 14.088l-15.908 47.723h144.225l-15.908-47.723c-2.803-8.413-10.677-14.088-19.545-14.088z" fill="#fff18f"/></g><g><path d="m299.032 106.624h-41.207c-8.868 0-16.742 5.675-19.546 14.088l-15.908 47.723h41.207l15.908-47.723c2.804-8.413 10.677-14.088 19.546-14.088z" fill="#ffde83"/></g><g><path d="m438.709 24.209h-338.444c0 22.758 18.449 41.207 41.207 41.207h338.444c0-22.758-18.449-41.207-41.207-41.207z" fill="#90aecf"/></g><g><path d="m202.946 487.791h288.451c11.379 0 20.604-9.225 20.604-20.604 0-11.379-9.225-20.604-20.604-20.604h-288.451c-11.379 0-20.604 9.225-20.604 20.604 0 11.379 9.225 20.604 20.604 20.604z" fill="#90aecf"/></g><g><path d="m244.153 467.187c0-11.379 9.225-20.604 20.604-20.604h-61.811c-11.379 0-20.604 9.225-20.604 20.604s9.225 20.604 20.604 20.604h61.811c-11.38 0-20.604-9.225-20.604-20.604z" fill="#7c96b3"/></g><g><path d="m253.276 44.813c0-11.379 9.225-20.604 20.604-20.604h-173.615c0 22.758 18.449 41.207 41.207 41.207h132.408c-11.379 0-20.604-9.224-20.604-20.603z" fill="#7c96b3"/></g><g><path d="m388.378 158.133h-320.197c-8.664 0-16.402-5.42-19.363-13.562l-8.872-24.397c-2.958-8.134-10.689-13.549-19.344-13.549-14.284 0-24.226 14.194-19.344 27.618l16.369 45.015c8.883 24.427 32.098 40.687 58.089 40.687h106.627v61.811c0 68.274 55.347 123.622 123.622 123.622h82.415c68.274 0 123.622-55.347 123.622-123.622-.002-68.276-55.349-123.623-123.624-123.623z" fill="#5ad6ff"/></g><g><path d="m267.012 281.755v-82.415c-11.379 0-20.604-9.225-20.604-20.604s9.225-20.604 20.604-20.604h-198.831c-8.664 0-16.402-5.42-19.363-13.562l-8.872-24.397c-2.958-8.134-10.689-13.549-19.344-13.549-14.284 0-24.226 14.194-19.344 27.618l16.369 45.015c8.883 24.427 32.098 40.687 58.089 40.687h106.627v61.811c0 68.274 55.347 123.622 123.622 123.622h82.415c.377 0 .751-.011 1.128-.014-67.756-.607-122.496-55.711-122.496-123.608z" fill="#00bdfd"/></g><g><path d="m295.662 199.34h-61.811c-5.69 0-10.302 4.612-10.302 10.302v82.414c0 5.69 4.612 10.302 10.302 10.302h61.811c5.69 0 10.302-4.612 10.302-10.302v-82.414c0-5.69-4.612-10.302-10.302-10.302z" fill="#e7faff"/></g><g><path d="m233.851 302.358h34.879c-1.124-6.701-1.719-13.582-1.719-20.604v-82.414h-33.161c-5.69 0-10.302 4.612-10.302 10.302v82.414c.001 5.69 4.614 10.302 10.303 10.302z" fill="#c1f1ff"/></g><g><path d="m347.171 209.642v82.414c0 5.69 4.612 10.302 10.302 10.302h103.018c5.69 0 10.302-4.612 10.302-10.302v-10.302c0-45.516-36.898-82.414-82.414-82.414h-30.906c-5.69 0-10.302 4.612-10.302 10.302z" fill="#e7faff"/></g><g><path d="m378.076 292.056v-82.414c0-5.69 4.612-10.302 10.302-10.302h-30.905c-5.69 0-10.302 4.612-10.302 10.302v82.414c0 5.69 4.612 10.302 10.302 10.302h30.905c-5.689 0-10.302-4.612-10.302-10.302z" fill="#c1f1ff"/></g><g><g><path d="m378.076 351.065h-30.905c-4.143 0-7.5-3.358-7.5-7.5s3.357-7.5 7.5-7.5h30.905c4.143 0 7.5 3.358 7.5 7.5s-3.357 7.5-7.5 7.5z" fill="#00aad8"/></g></g></g></svg>
