<svg id="Capa_1" enable-background="new 0 0 512 512" height="512" viewBox="0 0 512 512" width="512" xmlns="http://www.w3.org/2000/svg"><g><g><path d="m420.829 432.676c11.379 0 20.604-9.225 20.604-20.604v-123.621h-41.207v123.622c-.001 11.379 9.224 20.603 20.603 20.603z" fill="#c1f1ff"/></g><g><path d="m91.171 432.676c11.379 0 20.604-9.225 20.604-20.604v-123.621h-41.208v123.622c0 11.379 9.225 20.603 20.604 20.603z" fill="#aae8f7"/></g><g><path d="m194.189 367.775h41.207v123.622h-41.207z" fill="#aae8f7"/></g><g><path d="m276.604 367.775h41.207v123.622h-41.207z" fill="#aae8f7"/></g><g><path d="m276.604 491.396c0-11.379 9.225-20.604 20.604-20.604h41.207c11.379 0 20.604 9.225 20.604 20.604 0 11.379-9.225 20.604-20.604 20.604h-41.207c-11.38 0-20.604-9.225-20.604-20.604z" fill="#e7faff"/></g><g><path d="m317.811 491.396c0-11.379 9.225-20.604 20.604-20.604h-41.207c-11.379 0-20.604 9.225-20.604 20.604s9.225 20.604 20.604 20.604h41.207c-11.38 0-20.604-9.225-20.604-20.604z" fill="#c1f1ff"/></g><g><path d="m152.982 491.396c0-11.379 9.225-20.604 20.604-20.604h41.207c11.379 0 20.604 9.225 20.604 20.604 0 11.379-9.225 20.604-20.604 20.604h-41.207c-11.38 0-20.604-9.225-20.604-20.604z" fill="#e7faff"/></g><g><path d="m194.189 491.396c0-11.379 9.225-20.604 20.604-20.604h-41.207c-11.379 0-20.604 9.225-20.604 20.604s9.225 20.604 20.604 20.604h41.207c-11.379 0-20.604-9.225-20.604-20.604z" fill="#c1f1ff"/></g><g><path d="m323.564 391.469h-135.128c-8.868 0-16.742-5.675-19.546-14.088l-15.908-47.723 103.018-20.604 103.018 20.604-15.908 47.723c-2.804 8.413-10.677 14.088-19.546 14.088z" fill="#90aecf"/></g><g><path d="m204.491 360.563c0-17.069 13.837-30.905 30.905-30.905v-16.483l-82.414 16.483 15.908 47.723c2.804 8.413 10.678 14.088 19.546 14.088h46.961c-17.069 0-30.906-13.837-30.906-30.906z" fill="#7c96b3"/></g><g><path d="m359.018 195.734h-206.036v-154.527c0-22.758 18.449-41.207 41.207-41.207h123.622c22.758 0 41.207 18.449 41.207 41.207z" fill="#c1f1ff"/></g><g><path d="m256 0h-61.811c-22.758 0-41.207 18.449-41.207 41.207v154.527h61.811v-154.527c0-22.758 18.449-41.207 41.207-41.207z" fill="#aae8f7"/></g><g><path d="m400.225 329.658h-288.45c-22.758 0-41.207-18.449-41.207-41.207v-61.811c0-22.758 18.449-41.207 41.207-41.207h288.451c22.758 0 41.207 18.449 41.207 41.207v61.811c0 22.758-18.45 41.207-41.208 41.207z" fill="#e7faff"/></g><g><path d="m173.586 288.451v-61.811c0-22.758 18.449-41.207 41.207-41.207h-103.018c-22.758 0-41.207 18.449-41.207 41.207v61.811c0 22.758 18.449 41.207 41.207 41.207h103.018c-22.758 0-41.207-18.449-41.207-41.207z" fill="#c1f1ff"/></g><g><path d="m111.775 278.149v-41.207c0-5.69 4.612-10.302 10.302-10.302h82.414c5.69 0 10.302 4.612 10.302 10.302v41.207c0 5.69-4.612 10.302-10.302 10.302h-82.414c-5.69 0-10.302-4.613-10.302-10.302z" fill="#5ad6ff"/></g><g><path d="m152.982 257.545c0-17.069 13.837-30.905 30.905-30.905h-61.811c-5.69 0-10.302 4.612-10.302 10.302v41.207c0 5.69 4.612 10.302 10.302 10.302h61.811c-17.068 0-30.905-13.837-30.905-30.906z" fill="#00bdfd"/></g><g><path d="m194.189 119.446c0-11.379 9.225-20.604 20.604-20.604h82.415c11.379 0 20.604 9.225 20.604 20.604 0 11.379-9.225 20.604-20.604 20.604h-82.415c-11.379 0-20.604-9.224-20.604-20.604z" fill="#90aecf"/></g><g><path d="m194.189 119.446c0 11.379 9.225 20.604 20.604 20.604v-41.207c-11.379 0-20.604 9.224-20.604 20.603z" fill="#7c96b3"/></g><g><circle cx="369.32" cy="257.545" fill="#fff18f" r="30.905"/></g><g><path d="m369.32 257.545c0-11.437 6.218-21.416 15.453-26.761-4.547-2.631-9.821-4.145-15.453-4.145-17.069 0-30.905 13.837-30.905 30.905s13.837 30.905 30.905 30.905c5.631 0 10.906-1.514 15.453-4.145-9.235-5.342-15.453-15.321-15.453-26.759z" fill="#ffde83"/></g><g><circle cx="276.604" cy="257.545" fill="#ff7591" r="30.905"/></g><g><path d="m276.604 257.545c0-11.437 6.218-21.416 15.453-26.761-4.547-2.631-9.821-4.145-15.453-4.145-17.069 0-30.905 13.837-30.905 30.905s13.837 30.905 30.905 30.905c5.631 0 10.906-1.514 15.453-4.145-9.236-5.342-15.453-15.321-15.453-26.759z" fill="#fe5b70"/></g><g><g><path d="m191.666 75.438c-4.143 0-7.5-3.358-7.5-7.5v-12.363c0-4.142 3.357-7.5 7.5-7.5s7.5 3.358 7.5 7.5v12.362c0 4.143-3.357 7.501-7.5 7.501z" fill="#6a89a5"/></g><g><path d="m320.333 75.438c-4.143 0-7.5-3.358-7.5-7.5v-12.363c0-4.142 3.357-7.5 7.5-7.5s7.5 3.358 7.5 7.5v12.362c0 4.143-3.357 7.501-7.5 7.501z" fill="#6a89a5"/></g></g><g><path d="m227.896 98.843h15v41.208h-15z" fill="#6a89a5"/></g><g><path d="m269.104 98.843h15v41.208h-15z" fill="#6a89a5"/></g></g></svg>